HIERARCHY
ROOT Hips
{
	OFFSET 0.00000 0.00000 0.00000
	CHANNELS 6 Xposition Yposition Zposition Zrotation Yrotation Xrotation 
	JOINT LHipJoint
	{
		OFFSET 0 0 0
		CHANNELS 3 Zrotation Yrotation Xrotation
		JOINT LeftUpLeg
		{
			OFFSET 1.41496 -1.84582 0.78394
			CHANNELS 3 Zrotation Yrotation Xrotation
			JOINT LeftLeg
			{
				OFFSET 2.58040 -7.08960 0.00000
				CHANNELS 3 Zrotation Yrotation Xrotation
				JOINT LeftFoot
				{
					OFFSET 2.64719 -7.27309 0.00000
					CHANNELS 3 Zrotation Yrotation Xrotation
					JOINT LeftToeBase
					{
						OFFSET 0.20718 -0.56921 2.20259
						CHANNELS 3 Zrotation Yrotation Xrotation
						End Site
						{
							OFFSET 0.00000 -0.00000 1.14243
						}
					}
				}
			}
		}
	}
	JOINT RHipJoint
	{
		OFFSET 0 0 0
		CHANNELS 3 Zrotation Yrotation Xrotation
		JOINT RightUpLeg
		{
			OFFSET -1.40551 -1.84582 0.78394
			CHANNELS 3 Zrotation Yrotation Xrotation
			JOINT RightLeg
			{
				OFFSET -2.56572 -7.04926 0.00000
				CHANNELS 3 Zrotation Yrotation Xrotation
				JOINT RightFoot
				{
					OFFSET -2.57974 -7.08778 0.00000
					CHANNELS 3 Zrotation Yrotation Xrotation
					JOINT RightToeBase
					{
						OFFSET -0.26704 -0.73369 2.20815
						CHANNELS 3 Zrotation Yrotation Xrotation
						End Site
						{
							OFFSET -0.00000 -0.00000 1.16246
						}
					}
				}
			}
		}
	}
	JOINT LowerBack
	{
		OFFSET 0 0 0
		CHANNELS 3 Zrotation Yrotation Xrotation
		JOINT Spine
		{
			OFFSET -0.04690 2.05196 -0.07017
			CHANNELS 3 Zrotation Yrotation Xrotation
			JOINT Spine1
			{
				OFFSET 0.04085 2.05260 0.00800
				CHANNELS 3 Zrotation Yrotation Xrotation
				JOINT Neck
				{
					OFFSET 0 0 0
					CHANNELS 3 Zrotation Yrotation Xrotation
					JOINT Neck1
					{
						OFFSET -0.03582 1.80995 0.19301
						CHANNELS 3 Zrotation Yrotation Xrotation
						JOINT Head
						{
							OFFSET 0.00952 1.80195 -0.36389
							CHANNELS 3 Zrotation Yrotation Xrotation
							End Site
							{
								OFFSET 0.00392 1.85062 -0.14494
							}
						}
					}
				}
				JOINT LeftShoulder
				{
					OFFSET 0 0 0
					CHANNELS 3 Zrotation Yrotation Xrotation
					JOINT LeftArm
					{
						OFFSET 3.55224 1.39726 -0.13667
						CHANNELS 3 Zrotation Yrotation Xrotation
						JOINT LeftForeArm
						{
							OFFSET 5.14507 -0.00000 -0.00000
							CHANNELS 3 Zrotation Yrotation Xrotation
							JOINT LeftHand
							{
								OFFSET 3.50646 -0.00000 0.00000
								CHANNELS 3 Zrotation Yrotation Xrotation
								JOINT LeftFingerBase
								{
									OFFSET 0 0 0
									CHANNELS 3 Zrotation Yrotation Xrotation
									JOINT LeftHandIndex1
									{
										OFFSET 0.62997 -0.00000 0.00000
										CHANNELS 3 Zrotation Yrotation Xrotation
										End Site
										{
											OFFSET 0.50790 -0.00000 0.00000
										}
									}
								}
								JOINT LThumb
								{
									OFFSET 0 0 0
									CHANNELS 3 Zrotation Yrotation Xrotation
									End Site
									{
										OFFSET 0.51565 -0.00000 0.51565
									}
								}
							}
						}
					}
				}
				JOINT RightShoulder
				{
					OFFSET 0 0 0
					CHANNELS 3 Zrotation Yrotation Xrotation
					JOINT RightArm
					{
						OFFSET -3.06467 1.61290 -0.28813
						CHANNELS 3 Zrotation Yrotation Xrotation
						JOINT RightForeArm
						{
							OFFSET -5.23200 -0.00000 -0.00000
							CHANNELS 3 Zrotation Yrotation Xrotation
							JOINT RightHand
							{
								OFFSET -3.65641 -0.00000 0.00000
								CHANNELS 3 Zrotation Yrotation Xrotation
								JOINT RightFingerBase
								{
									OFFSET 0 0 0
									CHANNELS 3 Zrotation Yrotation Xrotation
									JOINT RightHandIndex1
									{
										OFFSET -0.65681 -0.00000 0.00000
										CHANNELS 3 Zrotation Yrotation Xrotation
										End Site
										{
											OFFSET -0.52953 -0.00000 0.00000
										}
									}
								}
								JOINT RThumb
								{
									OFFSET 0 0 0
									CHANNELS 3 Zrotation Yrotation Xrotation
									End Site
									{
										OFFSET -0.53762 -0.00000 0.53762
									}
								}
							}
						}
					}
				}
			}
		}
	}
}
MOTION
Frames: 10
Frame Time: .0083333
3.1997 16.0295 -1.9716 -174.8170 -1.5570 -156.2790 0.0000 0.0000 0.0000 -3.2828 -16.7651 -78.2852 15.7220 19.5554 77.4024 -0.4658 -17.4711 -7.2001 0.6013 4.9639 13.8056 0.0000 0.0000 0.0000 28.8130 -4.8595 6.4439 -1.6842 -8.1748 23.2464 -1.0868 -9.3348 18.7734 -2.5889 9.9977 -28.9693 5.5328 2.0853 14.3316 1.9211 3.7015 -0.4402 -1.8314 1.5184 -8.3053 -3.1730 -3.4545 -23.7805 0.6433 -4.7893 -0.9578 0.2257 -2.7842 3.4176 0.0000 0.0000 0.0000 -72.6273 55.5409 47.7664 121.4442 -55.9127 -86.8578 -0.0000 0.0000 -21.1611 20.5031 -11.4642 -4.2506 -7.1250 0.0000 -0.0000 -4.6492 17.7871 3.0167 0.0000 0.0000 0.0000 77.3121 3.3321 50.6661 -149.0277 41.7124 -107.9486 0.0000 -0.0000 -11.8143 -24.8123 13.4012 -6.1161 7.1250 -0.0000 -0.0000 1.7498 -15.2769 1.2275
3.2398 16.0659 -2.7174 -174.4680 -2.3330 -156.5210 0.0000 0.0000 0.0000 -3.4429 -16.9648 -78.4076 14.2201 19.1794 72.8755 -0.5167 -17.8802 -7.0125 0.6213 5.0443 14.0351 0.0000 0.0000 0.0000 29.6808 -4.2740 10.3253 -1.2189 -7.0029 19.7240 -1.6599 -11.8914 23.3246 -2.1500 9.1718 -26.3342 6.0339 2.1063 14.0260 2.0118 3.7808 -0.3792 -2.0136 1.5427 -8.0350 -3.3064 -3.7130 -23.8221 0.8350 -5.0466 -0.5536 0.2760 -2.8776 3.5625 0.0000 0.0000 0.0000 -73.6198 56.4320 46.5116 122.3470 -55.6514 -87.6044 -0.0000 0.0000 -20.7790 20.6149 -11.6219 -4.3337 -7.1250 0.0000 -0.0000 -4.5750 17.6106 2.9860 0.0000 0.0000 0.0000 76.5952 3.2096 50.6492 -149.5720 41.2574 -108.3092 0.0000 -0.0000 -12.5140 -24.8190 13.3871 -6.1116 7.1250 -0.0000 -0.0000 1.7442 -15.2915 1.2230
3.2809 16.0980 -3.4534 -174.1240 -3.1602 -156.7140 0.0000 0.0000 0.0000 -3.7579 -17.1487 -78.3481 12.7668 18.6964 68.3997 -0.5517 -17.9967 -6.6961 0.6637 5.2103 14.5093 0.0000 0.0000 0.0000 30.7582 -3.5561 13.3879 -0.9713 -6.2743 17.5823 -2.0080 -13.4692 25.7602 -1.9021 8.6592 -24.7350 6.5584 2.0860 13.8409 2.1014 3.8173 -0.3536 -2.2071 1.5418 -7.8727 -3.4423 -3.9436 -23.9178 1.0500 -5.2729 -0.1502 0.3353 -2.9562 3.7160 -0.0000 0.0000 0.0000 -74.9666 56.9543 44.9388 123.1866 -55.3992 -88.2965 -0.0000 0.0000 -20.2799 20.6412 -11.8265 -4.4147 -7.1250 0.0000 -0.0000 -4.5623 17.3919 2.9996 -0.0000 0.0000 0.0000 76.1126 2.9851 50.4706 -149.4249 41.3813 -108.2120 0.0000 -0.0000 -13.1092 -24.7459 13.1763 -5.9978 7.1250 -0.0000 -0.0000 1.7806 -15.5294 1.2395
3.3242 16.1255 -4.1788 -173.8130 -4.0173 -156.8610 0.0000 0.0000 0.0000 -4.2633 -17.2974 -78.1190 11.4157 18.1326 64.1242 -0.5746 -17.8617 -6.2278 0.7298 5.4583 15.2204 0.0000 0.0000 0.0000 31.9445 -2.8716 15.1880 -0.9639 -6.2512 17.5151 -2.0512 -14.3056 26.1464 -1.7676 8.3642 -23.8258 7.0618 2.0280 13.7684 2.1798 3.8100 -0.3528 -2.3979 1.5171 -7.8053 -3.5650 -4.1421 -24.0465 1.2819 -5.4722 0.1952 0.4001 -3.0240 3.8565 -0.0000 0.0000 0.0000 -76.6426 57.0958 43.0980 123.9649 -55.1573 -88.9362 -0.0000 0.0000 -19.5878 20.6015 -12.0551 -4.4890 -7.1250 0.0000 -0.0000 -4.5966 17.1535 3.0463 -0.0000 0.0000 0.0000 75.9013 2.6470 50.1477 -148.6046 42.0599 -107.6661 0.0000 -0.0000 -13.3941 -24.5331 12.7531 -5.7535 7.1250 -0.0000 -0.0000 1.9006 -16.0137 1.3033
3.3709 16.1476 -4.8937 -173.5840 -4.8816 -156.9680 0.0000 0.0000 0.0000 -5.0118 -17.3942 -77.7304 10.2143 17.5286 60.2023 -0.5925 -17.5557 -5.5862 0.8208 5.7806 16.1491 0.0000 0.0000 0.0000 33.0921 -2.3949 15.6150 -1.2045 -6.9630 19.6059 -1.8343 -14.8964 24.9371 -1.6703 8.1427 -23.1482 7.4705 1.9354 13.7889 2.2373 3.7512 -0.3588 -2.5532 1.4693 -7.8076 -3.6698 -4.3013 -24.1782 1.5346 -5.6410 0.4269 0.4729 -3.0806 3.9620 -0.0000 0.0000 0.0000 -78.5928 56.8423 41.0737 124.6656 -54.9328 -89.5105 -0.0000 0.0000 -18.6578 20.5434 -12.2465 -4.5449 -7.1250 0.0000 -0.0000 -4.6428 16.9563 3.0972 -0.0000 0.0000 0.0000 75.9775 2.1920 49.6990 -147.1285 43.2311 -106.6660 0.0000 -0.0000 -13.2619 -24.1664 12.1368 -5.3893 7.1250 -0.0000 -0.0000 2.1189 -16.7225 1.4206
3.4212 16.1629 -5.6003 -173.4710 -5.7064 -157.0550 0.0000 0.0000 0.0000 -6.0090 -17.4230 -77.1893 9.2072 16.9392 56.8041 -0.6130 -17.1761 -4.7613 0.9342 6.1568 17.2402 0.0000 0.0000 0.0000 34.0498 -2.1981 14.9495 -1.6912 -8.1909 23.2955 -1.4845 -15.7807 22.9372 -1.5809 7.9324 -22.5089 7.7183 1.8221 13.8810 2.2707 3.6469 -0.3519 -2.6392 1.4054 -7.8497 -3.7509 -4.4197 -24.2803 1.7950 -5.7806 0.5042 0.5499 -3.1286 4.0143 0.0000 0.0000 0.0000 -80.7342 56.1829 38.9883 125.2296 -54.7472 -89.9716 -0.0000 0.0000 -17.5103 20.5361 -12.4130 -4.6037 -7.1250 0.0000 -0.0000 -4.6529 16.7810 3.1218 0.0000 0.0000 0.0000 76.3259 1.6189 49.1386 -145.0063 44.8076 -105.1911 0.0000 -0.0000 -12.7401 -23.6908 11.3784 -4.9475 7.1250 -0.0000 -0.0000 2.4120 -17.5920 1.5716
3.4748 16.1724 -6.3013 -173.5070 -6.4469 -157.1310 0.0000 0.0000 0.0000 -7.2171 -17.3804 -76.5156 8.4308 16.4272 54.1001 -0.6406 -16.7753 -3.7043 1.0733 6.5856 18.4934 0.0000 0.0000 0.0000 34.7174 -2.2534 13.5561 -2.4151 -9.6819 27.9528 -1.1312 -17.0373 20.9880 -1.4661 7.6521 -21.6623 7.7404 1.7053 14.0181 2.2786 3.5073 -0.3249 -2.6217 1.3347 -7.9110 -3.8123 -4.4987 -24.3125 2.0521 -5.8902 0.4139 0.6296 -3.1685 4.0029 0.0000 -0.0000 0.0000 -82.9360 55.1255 37.0094 125.6006 -54.6228 -90.2743 -0.0000 0.0000 -16.2375 20.6341 -12.5180 -4.6660 -7.1250 0.0000 -0.0000 -4.5883 16.6611 3.0902 0.0000 -0.0000 0.0000 76.9027 0.9258 48.4667 -142.2407 46.6849 -103.2098 0.0000 -0.0000 -11.9866 -23.1876 10.5382 -4.4794 7.1250 -0.0000 -0.0000 2.7297 -18.5464 1.7217
3.5306 16.1784 -7.0002 -173.7080 -7.0754 -157.2480 0.0000 0.0000 0.0000 -8.6415 -17.2363 -75.6923 7.9148 16.0562 52.2552 -0.6578 -16.3250 -2.6194 1.2007 6.9523 19.5742 0.0000 0.0000 0.0000 35.0336 -2.5349 11.7327 -3.3612 -11.2579 33.1547 -0.8111 -18.4550 19.3510 -1.3451 7.3427 -20.7346 7.5133 1.5929 14.2276 2.2617 3.3391 -0.2672 -2.4886 1.2614 -7.9946 -3.8575 -4.5407 -24.2380 2.2936 -5.9683 0.1652 0.7094 -3.1998 3.9254 -0.0000 -0.0000 0.0000 -85.0677 53.6992 35.2954 125.7437 -54.5743 -90.3909 -0.0000 0.0000 -14.9874 20.8689 -12.5202 -4.7246 -7.1250 0.0000 -0.0000 -4.4255 16.6369 2.9822 -0.0000 -0.0000 0.0000 77.6521 0.1101 47.6866 -138.8280 48.7491 -100.6842 0.0000 -0.0000 -11.2356 -22.7484 9.6664 -4.0273 7.1250 -0.0000 -0.0000 3.0112 -19.5231 1.8343
3.5871 16.1838 -7.6988 -174.0730 -7.5869 -157.4290 0.0000 0.0000 0.0000 -10.1410 -17.0399 -74.7215 7.6778 15.8771 51.3936 -0.6638 -15.9686 -1.8134 1.3026 7.2303 20.3995 0.0000 0.0000 0.0000 34.9936 -2.9714 9.6463 -4.5134 -12.8140 38.6761 -0.5507 -19.7861 18.1617 -1.2024 6.9572 -19.5887 7.0493 1.4901 14.5204 2.2227 3.1492 -0.1782 -2.2442 1.1877 -8.1028 -3.8906 -4.5539 -24.0595 2.5028 -6.0184 -0.1984 0.7839 -3.2238 3.7956 -0.0000 -0.0000 0.0000 -87.0213 51.9271 33.9662 125.6155 -54.6177 -90.2865 -0.0000 0.0000 -13.9312 21.2061 -12.4418 -4.7784 -7.1250 0.0000 -0.0000 -4.1888 16.6883 2.8171 -0.0000 -0.0000 0.0000 78.5136 -0.8107 46.7951 -134.7342 50.8980 -97.5552 0.0000 -0.0000 -10.7303 -22.4727 8.7975 -3.6200 7.1250 -0.0000 -0.0000 3.1851 -20.4790 1.8723
3.6424 16.1895 -8.3979 -174.5740 -7.9890 -157.6960 0.0000 0.0000 0.0000 -11.5577 -16.8410 -73.6124 7.7173 15.9073 51.5379 -0.6590 -15.7512 -1.4722 1.3510 7.3581 20.7807 0.0000 0.0000 0.0000 34.6292 -3.4947 7.3996 -5.8549 -14.2863 44.3967 -0.3645 -20.8035 17.4002 -1.0311 6.4590 -18.1222 6.4000 1.3997 14.9047 2.1648 2.9456 -0.0562 -1.9142 1.1149 -8.2327 -3.9133 -4.5439 -23.7888 2.6737 -6.0428 -0.6327 0.8502 -3.2400 3.6289 -0.0000 -0.0000 0.0000 -88.7201 49.8367 33.0945 125.2160 -54.7517 -89.9605 -0.0000 0.0000 -13.2420 21.5937 -12.3188 -4.8269 -7.1250 0.0000 -0.0000 -3.9150 16.7824 2.6241 -0.0000 -0.0000 0.0000 79.4405 -1.8016 45.7931 -129.9013 53.0352 -93.7470 0.0000 -0.0000 -10.6654 -22.4117 7.9493 -3.2643 7.1250 -0.0000 -0.0000 3.2115 -21.3959 1.8214
